<?xml version="1.0" encoding="UTF-8" standalone="no"?>
<svg
   width="67.466003"
   height="78.418999"
   viewBox="0 0 17.85038 20.748361"
   version="1.1"
   id="svg57707"
   inkscape:version="1.4 (e7c3feb, 2024-10-09)"
   sodipodi:docname="c-lang-logo.svg"
   inkscape:export-filename="/home/user/Documents/libp2p/implementation logos/nim-lang-logo.png"
   inkscape:export-xdpi="300"
   inkscape:export-ydpi="300"
   xmlns:inkscape="http://www.inkscape.org/namespaces/inkscape"
   xmlns:sodipodi="http://sodipodi.sourceforge.net/DTD/sodipodi-0.dtd"
   xmlns="http://www.w3.org/2000/svg"
   xmlns:svg="http://www.w3.org/2000/svg"
   xmlns:rdf="http://www.w3.org/1999/02/22-rdf-syntax-ns#"
   xmlns:cc="http://creativecommons.org/ns#"
   xmlns:dc="http://purl.org/dc/elements/1.1/">
  <defs
     id="defs57701">
    <linearGradient
       id="linearGradient4689">
      <stop
         style="stop-color:#5a9fd4;stop-opacity:1;"
         offset="0"
         id="stop4691" />
      <stop
         style="stop-color:#306998;stop-opacity:1;"
         offset="1"
         id="stop4693" />
    </linearGradient>
    <linearGradient
       id="linearGradient4671">
      <stop
         style="stop-color:#ffd43b;stop-opacity:1;"
         offset="0"
         id="stop4673" />
      <stop
         style="stop-color:#ffe873;stop-opacity:1"
         offset="1"
         id="stop4675" />
    </linearGradient>
    <radialGradient
       id="a"
       cx="22.431999"
       cy="3.493"
       r="21.679001"
       gradientTransform="matrix(0.53087125,0,0,0.53087125,74.382025,96.230746)"
       gradientUnits="userSpaceOnUse">
      <stop
         stop-color="#e44857"
         offset=".003"
         id="stop59109" />
      <stop
         stop-color="#c711e1"
         offset=".469"
         id="stop59111" />
      <stop
         stop-color="#7f52ff"
         offset="1"
         id="stop59113" />
    </radialGradient>
  </defs>
  <sodipodi:namedview
     id="base"
     pagecolor="#ffffff"
     bordercolor="#666666"
     borderopacity="1.0"
     inkscape:pageopacity="0.0"
     inkscape:pageshadow="2"
     inkscape:zoom="2.8"
     inkscape:cx="-11.785714"
     inkscape:cy="-32.678571"
     inkscape:document-units="px"
     inkscape:current-layer="layer1"
     inkscape:document-rotation="0"
     showgrid="false"
     inkscape:window-width="1545"
     inkscape:window-height="1202"
     inkscape:window-x="370"
     inkscape:window-y="815"
     inkscape:window-maximized="0"
     units="px"
     inkscape:showpageshadow="2"
     inkscape:pagecheckerboard="0"
     inkscape:deskcolor="#d1d1d1" />
  <metadata
     id="metadata57704">
    <rdf:RDF>
      <cc:Work
         rdf:about="">
        <dc:format>image/svg+xml</dc:format>
        <dc:type
           rdf:resource="http://purl.org/dc/dcmitype/StillImage" />
      </cc:Work>
    </rdf:RDF>
  </metadata>
  <g
     inkscape:label="Layer 1"
     inkscape:groupmode="layer"
     id="layer1">
    <g
       id="g2"
       transform="matrix(0.46974573,0,0,0.46974573,4.1479817e-7,0.5095124)">
      <path
         fill="#283593"
         fill-rule="evenodd"
         d="m 17.903,0.28628166 c 0.679,-0.381 1.515,-0.381 2.193,0 C 23.451,2.1692817 33.547,7.8372817 36.903,9.7202817 37.582,10.100282 38,10.804282 38,11.566282 c 0,3.766 0,15.101 0,18.867 0,0.762 -0.418,1.466 -1.097,1.847 -3.355,1.883 -13.451,7.551 -16.807,9.434 -0.679,0.381 -1.515,0.381 -2.193,0 -3.355,-1.883 -13.451,-7.551 -16.807,-9.434 -0.678,-0.381 -1.096,-1.084 -1.096,-1.846 0,-3.766 0,-15.101 0,-18.867 0,-0.762 0.418,-1.466 1.097,-1.8470003 3.354,-1.883 13.452,-7.551 16.806,-9.43400004 z"
         clip-rule="evenodd"
         id="path2-3"
         style="fill:#004482;fill-opacity:1" />
      <path
         fill="#5c6bc0"
         fill-rule="evenodd"
         d="m 0.304,31.404282 c -0.266,-0.356 -0.304,-0.694 -0.304,-1.149 0,-3.744 0,-15.014 0,-18.759 0,-0.758 0.417,-1.458 1.094,-1.8360003 3.343,-1.872 13.405,-7.507 16.748,-9.38000004 0.677,-0.379 1.594,-0.371 2.271,0.008 3.343,1.87200004 13.371,7.45900004 16.714,9.33100004 0.27,0.152 0.476,0.335 0.66,0.5760003 z"
         clip-rule="evenodd"
         id="path4-6"
         style="fill:#659ad2;fill-opacity:1" />
      <path
         fill="#ffffff"
         fill-rule="evenodd"
         d="m 19,7.0002817 c 7.727,0 14,6.2730003 14,14.0000003 0,7.727 -6.273,14 -14,14 -7.727,0 -14,-6.273 -14,-14 0,-7.727 6.273,-14.0000003 14,-14.0000003 z m 0,7.0000003 c 3.863,0 7,3.136 7,7 0,3.863 -3.137,7 -7,7 -3.863,0 -7,-3.137 -7,-7 0,-3.864 3.136,-7 7,-7 z"
         clip-rule="evenodd"
         id="path6" />
      <path
         fill="#3949ab"
         fill-rule="evenodd"
         d="m 37.485,10.205282 c 0.516,0.483 0.506,1.211 0.506,1.784 0,3.795 -0.032,14.589 0.009,18.384 0.004,0.396 -0.127,0.813 -0.323,1.127 l -19.084,-10.5 z"
         clip-rule="evenodd"
         id="path8"
         style="fill:#00599c;fill-opacity:1" />
    </g>
    <path
       sodipodi:type="star"
       style="fill:none;fill-opacity:1;stroke:#000000;stroke-width:0.892978;stroke-miterlimit:4;stroke-dasharray:none;stroke-dashoffset:20.0686;stroke-opacity:1"
       id="path3710"
       sodipodi:sides="6"
       sodipodi:cx="16.933334"
       sodipodi:cy="14.664698"
       sodipodi:r1="16.933334"
       sodipodi:r2="14.664697"
       sodipodi:arg1="1.0471976"
       sodipodi:arg2="1.5707963"
       inkscape:flatsided="true"
       inkscape:rounded="0"
       inkscape:randomized="0"
       inkscape:export-filename="/home/user/Downloads/white_hex.png"
       inkscape:export-xdpi="300"
       inkscape:export-ydpi="300"
       transform="matrix(0,0.59454506,-0.59063374,0,17.586642,0.306524)"
       d="M 25.400001,29.329396 8.4666665,29.329395 0,14.664697 8.4666679,-4.8449052e-7 25.400002,3.4191381e-7 33.866669,14.664698 Z" />
  </g>
</svg>
