<?xml version="1.0" encoding="UTF-8" standalone="no"?>
<svg
   width="67.466003"
   height="78.418999"
   viewBox="0 0 17.85038 20.748361"
   version="1.1"
   id="svg57707"
   inkscape:version="1.4 (e7c3feb, 2024-10-09)"
   sodipodi:docname="dotnet-lang-logo.svg"
   inkscape:export-filename="/home/user/Documents/libp2p/implementation logos/nim-lang-logo.png"
   inkscape:export-xdpi="300"
   inkscape:export-ydpi="300"
   xmlns:inkscape="http://www.inkscape.org/namespaces/inkscape"
   xmlns:sodipodi="http://sodipodi.sourceforge.net/DTD/sodipodi-0.dtd"
   xmlns="http://www.w3.org/2000/svg"
   xmlns:svg="http://www.w3.org/2000/svg"
   xmlns:rdf="http://www.w3.org/1999/02/22-rdf-syntax-ns#"
   xmlns:cc="http://creativecommons.org/ns#"
   xmlns:dc="http://purl.org/dc/elements/1.1/">
  <defs
     id="defs57701">
    <linearGradient
       id="linearGradient4689">
      <stop
         style="stop-color:#5a9fd4;stop-opacity:1;"
         offset="0"
         id="stop4691" />
      <stop
         style="stop-color:#306998;stop-opacity:1;"
         offset="1"
         id="stop4693" />
    </linearGradient>
    <linearGradient
       id="linearGradient4671">
      <stop
         style="stop-color:#ffd43b;stop-opacity:1;"
         offset="0"
         id="stop4673" />
      <stop
         style="stop-color:#ffe873;stop-opacity:1"
         offset="1"
         id="stop4675" />
    </linearGradient>
    <radialGradient
       id="a"
       cx="22.431999"
       cy="3.493"
       r="21.679001"
       gradientTransform="matrix(0.53087125,0,0,0.53087125,74.382025,96.230746)"
       gradientUnits="userSpaceOnUse">
      <stop
         stop-color="#e44857"
         offset=".003"
         id="stop59109" />
      <stop
         stop-color="#c711e1"
         offset=".469"
         id="stop59111" />
      <stop
         stop-color="#7f52ff"
         offset="1"
         id="stop59113" />
    </radialGradient>
    <clipPath
       clipPathUnits="userSpaceOnUse"
       id="clipPath10">
      <path
         sodipodi:type="star"
         style="fill:none;fill-opacity:1;stroke:#000000;stroke-width:0.892978;stroke-miterlimit:4;stroke-dasharray:none;stroke-dashoffset:20.0686;stroke-opacity:1"
         id="path10"
         sodipodi:sides="6"
         sodipodi:cx="16.933334"
         sodipodi:cy="14.664698"
         sodipodi:r1="16.933334"
         sodipodi:r2="14.664697"
         sodipodi:arg1="1.0471976"
         sodipodi:arg2="1.5707963"
         inkscape:flatsided="true"
         inkscape:rounded="0"
         inkscape:randomized="0"
         inkscape:export-filename="/home/user/Downloads/white_hex.png"
         inkscape:export-xdpi="300"
         inkscape:export-ydpi="300"
         transform="matrix(0,1.8594463,-1.8472137,0,58.643422,0.95865766)"
         d="M 25.400001,29.329396 8.4666665,29.329395 0,14.664697 8.4666679,-4.8449052e-7 25.400002,3.4191381e-7 33.866669,14.664698 Z" />
    </clipPath>
  </defs>
  <sodipodi:namedview
     id="base"
     pagecolor="#ffffff"
     bordercolor="#666666"
     borderopacity="1.0"
     inkscape:pageopacity="0.0"
     inkscape:pageshadow="2"
     inkscape:zoom="3.959798"
     inkscape:cx="1.5152288"
     inkscape:cy="112.2532"
     inkscape:document-units="px"
     inkscape:current-layer="layer1"
     inkscape:document-rotation="0"
     showgrid="false"
     inkscape:window-width="1545"
     inkscape:window-height="1202"
     inkscape:window-x="961"
     inkscape:window-y="984"
     inkscape:window-maximized="0"
     units="px"
     inkscape:showpageshadow="2"
     inkscape:pagecheckerboard="0"
     inkscape:deskcolor="#d1d1d1" />
  <metadata
     id="metadata57704">
    <rdf:RDF>
      <cc:Work
         rdf:about="">
        <dc:format>image/svg+xml</dc:format>
        <dc:type
           rdf:resource="http://purl.org/dc/dcmitype/StillImage" />
      </cc:Work>
    </rdf:RDF>
  </metadata>
  <g
     inkscape:label="Layer 1"
     inkscape:groupmode="layer"
     id="layer1">
    <g
       id="g9"
       transform="matrix(0.31974306,0,0,0.31974306,-1.1641852,-1.2932474e-7)"
       clip-path="url(#clipPath10)">
      <circle
         class="cls-1"
         cx="32"
         cy="32"
         r="32"
         id="circle1"
         style="fill:#5c2d91" />
      <path
         class="cls-2"
         d="M 9.82,9 A 32,32 0 1 0 55,54.18 Z"
         id="path1"
         style="opacity:0.1;fill:#ffffff" />
      <path
         class="cls-3"
         d="m 7.4,37.25 a 1.35,1.35 0 0 1 -1,-0.42 1.38,1.38 0 0 1 -0.41,-1 1.4,1.4 0 0 1 0.41,-1 1.34,1.34 0 0 1 1,-0.43 1.37,1.37 0 0 1 1,0.43 1.39,1.39 0 0 1 0.42,1 1.37,1.37 0 0 1 -0.42,1 1.38,1.38 0 0 1 -1,0.42 z"
         id="path2"
         style="fill:#ffffff" />
      <path
         class="cls-3"
         d="M 27.27,37 H 24.65 L 15.28,22.46 A 6,6 0 0 1 14.7,21.32 h -0.08 a 18.72,18.72 0 0 1 0.1,2.5 V 37 H 12.59 V 18.77 h 2.77 l 9.12,14.28 q 0.57,0.89 0.74,1.22 h 0.05 A 19.28,19.28 0 0 1 25.14,31.59 V 18.77 h 2.13 z"
         id="path3"
         style="fill:#ffffff" />
      <path
         class="cls-3"
         d="M 41.69,37 H 32 V 18.77 h 9.24 v 1.93 h -7.06 v 6.06 h 6.58 v 1.92 H 34.18 V 35 h 7.52 z"
         id="path4"
         style="fill:#ffffff" />
      <path
         class="cls-3"
         d="M 56,20.7 H 50.7 V 37 H 48.57 V 20.7 H 43.33 V 18.77 H 56 Z"
         id="path5"
         style="fill:#ffffff" />
      <path
         class="cls-4"
         d="m 26.12,49.4 a 4.93,4.93 0 0 1 -2.32,0.49 3.74,3.74 0 0 1 -2.87,-1.15 4.26,4.26 0 0 1 -1.08,-3 4.46,4.46 0 0 1 1.21,-3.26 4.12,4.12 0 0 1 3.08,-1.24 4.93,4.93 0 0 1 2,0.35 v 1 a 4,4 0 0 0 -2,-0.5 3.06,3.06 0 0 0 -2.35,1 3.64,3.64 0 0 0 -0.9,2.58 3.47,3.47 0 0 0 0.84,2.45 2.86,2.86 0 0 0 2.21,0.91 4.14,4.14 0 0 0 2.19,-0.56 z"
         id="path6"
         style="fill:#f2f2f2" />
      <path
         class="cls-4"
         d="M 30.21,49.89 A 2.78,2.78 0 0 1 28.08,49 a 3.11,3.11 0 0 1 -0.79,-2.23 3.24,3.24 0 0 1 0.83,-2.36 3,3 0 0 1 2.23,-0.85 2.69,2.69 0 0 1 2.09,0.83 3.28,3.28 0 0 1 0.75,2.29 3.22,3.22 0 0 1 -0.81,2.3 2.84,2.84 0 0 1 -2.17,0.91 z m 0.07,-5.47 a 1.83,1.83 0 0 0 -1.46,0.63 2.59,2.59 0 0 0 -0.54,1.74 2.45,2.45 0 0 0 0.54,1.68 1.85,1.85 0 0 0 1.46,0.62 1.76,1.76 0 0 0 1.43,-0.6 2.62,2.62 0 0 0 0.5,-1.72 2.66,2.66 0 0 0 -0.5,-1.73 1.75,1.75 0 0 0 -1.43,-0.62 z"
         id="path7"
         style="fill:#f2f2f2" />
      <path
         class="cls-4"
         d="m 37.86,44.72 a 1.18,1.18 0 0 0 -0.73,-0.19 1.23,1.23 0 0 0 -1,0.58 2.68,2.68 0 0 0 -0.41,1.58 v 3.06 h -1 v -6 h 1 V 45 45 a 2.1,2.1 0 0 1 0.63,-1 1.43,1.43 0 0 1 0.94,-0.35 1.57,1.57 0 0 1 0.57,0.08 z"
         id="path8"
         style="fill:#f2f2f2" />
      <path
         class="cls-4"
         d="m 43.72,47 h -4.23 a 2.24,2.24 0 0 0 0.51,1.54 1.86,1.86 0 0 0 1.42,0.54 3,3 0 0 0 1.86,-0.67 v 0.9 a 3.48,3.48 0 0 1 -2.09,0.57 2.54,2.54 0 0 1 -2,-0.82 3.35,3.35 0 0 1 -0.73,-2.3 3.28,3.28 0 0 1 0.79,-2.28 2.55,2.55 0 0 1 2,-0.88 2.26,2.26 0 0 1 1.82,0.76 3.18,3.18 0 0 1 0.64,2.12 z m -1,-0.81 a 2,2 0 0 0 -0.4,-1.29 1.37,1.37 0 0 0 -1.1,-0.46 1.55,1.55 0 0 0 -1.15,0.49 2.21,2.21 0 0 0 -0.59,1.27 z"
         id="path9"
         style="fill:#f2f2f2" />
    </g>
    <path
       sodipodi:type="star"
       style="fill:none;fill-opacity:1;stroke:#000000;stroke-width:0.892978;stroke-miterlimit:4;stroke-dasharray:none;stroke-dashoffset:20.0686;stroke-opacity:1"
       id="path3710-5"
       sodipodi:sides="6"
       sodipodi:cx="16.933334"
       sodipodi:cy="14.664698"
       sodipodi:r1="16.933334"
       sodipodi:r2="14.664697"
       sodipodi:arg1="1.0471976"
       sodipodi:arg2="1.5707963"
       inkscape:flatsided="true"
       inkscape:rounded="0"
       inkscape:randomized="0"
       inkscape:export-filename="/home/user/Downloads/white_hex.png"
       inkscape:export-xdpi="300"
       inkscape:export-ydpi="300"
       transform="matrix(0,0.59454506,-0.59063374,0,17.586655,0.30654996)"
       d="M 25.400001,29.329396 8.4666665,29.329395 0,14.664697 8.4666679,-4.8449052e-7 25.400002,3.4191381e-7 33.866669,14.664698 Z" />
  </g>
</svg>
