<?xml version="1.0" encoding="UTF-8" standalone="no"?>
<svg
   enable-background="new 0 0 1920 1080"
   viewBox="0 0 256 256"
   version="1.1"
   id="svg13"
   sodipodi:docname="ethereum-logo.svg"
   width="256"
   height="256"
   inkscape:version="1.4 (e7c3feb, 2024-10-09)"
   xmlns:inkscape="http://www.inkscape.org/namespaces/inkscape"
   xmlns:sodipodi="http://sodipodi.sourceforge.net/DTD/sodipodi-0.dtd"
   xmlns="http://www.w3.org/2000/svg"
   xmlns:svg="http://www.w3.org/2000/svg">
  <defs
     id="defs13" />
  <sodipodi:namedview
     id="namedview13"
     pagecolor="#ffffff"
     bordercolor="#666666"
     borderopacity="1.0"
     inkscape:showpageshadow="2"
     inkscape:pageopacity="0.0"
     inkscape:pagecheckerboard="0"
     inkscape:deskcolor="#d1d1d1"
     showgrid="false"
     inkscape:zoom="1.4041667"
     inkscape:cx="136.02374"
     inkscape:cy="174.12462"
     inkscape:window-width="1505"
     inkscape:window-height="1284"
     inkscape:window-x="267"
     inkscape:window-y="849"
     inkscape:window-maximized="1"
     inkscape:current-layer="svg13"
     showguides="true">
    <sodipodi:guide
       position="0,41"
       orientation="0,1"
       id="guide1"
       inkscape:locked="false"
       inkscape:label=""
       inkscape:color="rgb(0,134,229)" />
    <sodipodi:guide
       position="0,86"
       orientation="0,1"
       id="guide2"
       inkscape:locked="false"
       inkscape:label=""
       inkscape:color="rgb(0,134,229)" />
    <sodipodi:guide
       position="0,171"
       orientation="0,1"
       id="guide3"
       inkscape:locked="false"
       inkscape:label=""
       inkscape:color="rgb(0,134,229)" />
  </sodipodi:namedview>
  <g
     fill="#3b3b3b"
     id="g8"
     transform="matrix(0.26663889,0,0,0.26663889,-127.96,-15.971669)">
    <path
       d="m 566.6,822.1 c 0,2.1 -1.8,3.8 -3.9,3.8 h -74.9 c 1.9,18.5 15.8,35.4 35.4,35.4 13.4,0 23.3,-5.1 30.8,-15.8 1.1,-1.5 2.7,-2.4 4.8,-1.5 1.1,0.5 1.9,1.5 2.1,2.7 0.2,1.2 -0.1,1.9 -0.5,2.6 -7.5,13.1 -22.5,19.6 -37.3,19.6 -25.2,0 -43.2,-22.5 -43.2,-46.7 0,-24.1 18,-46.7 43.2,-46.7 25.3,0 43.5,22.5 43.5,46.6 z m -8,-3.7 C 557,799.9 542.8,783 523.2,783 c -19.6,0 -33.5,16.9 -35.4,35.4 z"
       id="path1" />
    <path
       d="m 657.5,777.4 c 2.1,0 3.8,1.9 3.8,3.8 0,2.1 -1.6,3.8 -3.8,3.8 h -20.1 v 78.8 c 0,1.9 -1.6,3.8 -3.8,3.8 -2.1,0 -3.8,-1.9 -3.8,-3.8 V 785 h -19.3 c -2.1,0 -3.8,-1.6 -3.8,-3.8 0,-1.9 1.6,-3.8 3.8,-3.8 h 19.3 v -28.9 c 0,-1.8 1.2,-3.5 3,-3.8 2.5,-0.4 4.5,1.3 4.5,3.7 v 29 z"
       id="path2" />
    <path
       d="m 780.1,815.5 v 47.7 c 0,2.1 -1.9,3.8 -3.8,3.8 -2.1,0 -3.8,-1.6 -3.8,-3.8 v -47.7 c 0,-16.1 -9.1,-32.2 -27.1,-32.2 -23.1,0 -33,20.1 -31.6,40.8 0,0.5 0.3,2.9 0.3,3.2 v 35.8 c 0,1.8 -1.2,3.5 -3,3.8 -2.5,0.4 -4.5,-1.3 -4.5,-3.7 V 706.3 c 0,-1.9 1.6,-3.8 3.8,-3.8 2.1,0 3.8,1.9 3.8,3.8 v 88.8 c 6.4,-11.5 18,-19.3 31.4,-19.3 21.9,0 34.5,19.3 34.5,39.7 z"
       id="path3" />
    <path
       d="m 914.4,822.1 c 0,2.1 -1.8,3.8 -3.9,3.8 h -74.9 c 1.9,18.5 15.8,35.4 35.4,35.4 13.4,0 23.3,-5.1 30.8,-15.8 1.1,-1.5 2.7,-2.4 4.8,-1.5 1.1,0.5 1.9,1.5 2.1,2.7 0.2,1.2 -0.1,1.9 -0.5,2.6 -7.5,13.1 -22.5,19.6 -37.3,19.6 -25.2,0 -43.2,-22.5 -43.2,-46.7 0,-24.1 18,-46.7 43.2,-46.7 25.3,0 43.5,22.5 43.5,46.6 z m -8,-3.7 C 904.8,799.9 890.6,783 871,783 c -19.6,0 -33.5,16.9 -35.4,35.4 z"
       id="path4" />
    <path
       d="m 1006.4,780.9 c 0,2.4 -1.3,3.8 -3.5,4 -22,3.2 -31.9,21.2 -31.9,42.1 v 35.8 c 0,1.8 -1.2,3.5 -3,3.8 -2.5,0.4 -4.5,-1.3 -4.5,-3.7 v -81.7 c 0,-1.8 1.2,-3.5 3,-3.8 2.5,-0.4 4.5,1.3 4.5,3.7 v 16.6 c 6.2,-10.5 18.5,-20.4 31.4,-20.4 1.8,0.1 4,1.4 4,3.6 z"
       id="path5" />
    <path
       d="m 1129.5,822.1 c 0,2.1 -1.8,3.8 -3.9,3.8 h -74.9 c 1.9,18.5 15.8,35.4 35.4,35.4 13.4,0 23.3,-5.1 30.8,-15.8 1.1,-1.5 2.7,-2.4 4.8,-1.5 1.1,0.5 1.9,1.5 2.1,2.7 0.2,1.2 -0.1,1.9 -0.5,2.6 -7.5,13.1 -22.5,19.6 -37.3,19.6 -25.2,0 -43.2,-22.5 -43.2,-46.7 0,-24.1 18,-46.7 43.2,-46.7 25.2,0 43.4,22.5 43.5,46.6 z m -8.1,-3.7 c -1.6,-18.5 -15.8,-35.4 -35.4,-35.4 -19.6,0 -33.5,16.9 -35.4,35.4 z"
       id="path6" />
    <path
       d="m 1250.4,781.8 v 25.9 56 c 0,2.1 -1.9,3.8 -3.8,3.8 -2.1,0 -3.8,-1.6 -3.8,-3.8 v -15.6 c -6.2,12.3 -17.2,21.2 -31.1,21.2 -22.3,0 -34.6,-19.3 -34.6,-39.7 v -48 c 0,-1.9 1.6,-3.8 3.8,-3.8 2.2,0 3.8,1.9 3.8,3.8 v 48 c 0,16.1 9.1,32.2 27.1,32.2 25.2,0 31.1,-23.6 31.1,-49.6 v -30.6 c 0,-2.2 2.2,-4.4 4.8,-3.6 1.7,0.5 2.7,2.1 2.7,3.8 z"
       id="path7" />
    <path
       d="m 1440,815.2 v 48 c 0,2.1 -1.9,3.8 -3.8,3.8 -2.1,0 -3.8,-1.6 -3.8,-3.8 v -48 c 0,-16.1 -9.1,-31.9 -27.1,-31.9 -22.5,0 -31.1,24.1 -31.1,42.9 v 37 c 0,2.1 -1.9,3.8 -3.8,3.8 -2.1,0 -3.8,-1.6 -3.8,-3.8 v -48 c 0,-16.1 -9.1,-31.9 -27.1,-31.9 -22.8,0 -32.2,18 -31.4,41.8 0,0.5 0.3,1.6 0,1.9 v 36.1 c 0,1.8 -1.2,3.5 -3,3.8 -2.5,0.4 -4.5,-1.3 -4.5,-3.7 v -82 c 0,-1.8 1.2,-3.5 3,-3.8 2.5,-0.4 4.5,1.3 4.5,3.7 v 13.7 c 6.4,-11.5 18,-19 31.4,-19 15.3,0 27.1,9.7 31.9,23.9 6.2,-13.9 18.2,-23.9 33.8,-23.9 22.2,0 34.8,19 34.8,39.4 z"
       id="path8" />
  </g>
  <g
     id="g7"
     style="clip-rule:evenodd;fill-rule:evenodd;stroke-linecap:round;stroke-linejoin:round;stroke-miterlimit:7"
     transform="matrix(0.61475551,0,0,0.61475551,84.444265,18.983664)">
    <g
       transform="translate(-1259.52,-529.088)"
       id="g6">
        <g
   id="Ethereum">
            <g
   id="Bottom">
                <g
   id="Purple2"
   transform="matrix(1.08181,0,0,-1.03277,-108.829,1366.48)">
                    <path
   d="m 1394.74,693.463 -64.38,-89.439 v 50.214 z"
   style="fill:#c8b2f5;stroke:#3441c0;stroke-width:2.27px"
   id="path1-3" />

                </g>

                <g
   id="Yellow2"
   transform="matrix(-1.08181,0,0,-1.03277,2769.57,1366.48)">
                    <path
   d="m 1394.74,693.463 -64.38,-89.439 v 50.214 z"
   style="fill:#eecbc0;stroke:#3441c0;stroke-width:2.27px"
   id="path2-6" />

                </g>

            </g>

            <g
   id="Top">
                <g
   id="Blue1"
   transform="matrix(-1,0,0,1,2659.32,-0.0263692)">
                    <path
   d="m 1398.61,639.614 -69.66,-30.973 v 70.608 z"
   style="fill:#87a9f0;stroke:#3441c0;stroke-width:2.4px"
   id="path3-7" />

                </g>

                <g
   id="Purple1"
   transform="translate(1.41643,-0.0263692)">
                    <path
   d="m 1398.61,639.614 -69.66,-30.973 v 70.608 z"
   style="fill:#cab3f5;stroke:#3441c0;stroke-width:2.4px"
   id="path4-5" />

                </g>

                <g
   id="Yellow1"
   transform="matrix(-1.08181,0,0,1.03277,2769.57,-93.5314)">
                    <path
   d="m 1394.74,709.855 -64.38,-105.831 v 75.841 z"
   style="fill:#eecbc0;stroke:#3441c0;stroke-width:2.27px"
   id="path5-3" />

                </g>

                <g
   id="Green1"
   transform="matrix(1.08181,0,0,1.03277,-108.829,-93.5314)">
                    <path
   d="m 1394.74,709.855 -64.38,-105.831 v 75.841 z"
   style="fill:#b8fbf6;stroke:#3441c0;stroke-width:2.27px"
   id="path6-5" />

                </g>

            </g>

        </g>

    </g>
  </g>
</svg>
