<?xml version="1.0" encoding="UTF-8" standalone="no"?>
<svg
   enable-background="new 0 0 1920 1080"
   viewBox="0 0 256 256"
   version="1.1"
   id="svg13"
   sodipodi:docname="ethereum-logo.svg"
   width="256"
   height="256"
   inkscape:version="1.4 (e7c3feb, 2024-10-09)"
   xmlns:inkscape="http://www.inkscape.org/namespaces/inkscape"
   xmlns:sodipodi="http://sodipodi.sourceforge.net/DTD/sodipodi-0.dtd"
   xmlns="http://www.w3.org/2000/svg"
   xmlns:svg="http://www.w3.org/2000/svg">
  <defs
     id="defs13" />
  <sodipodi:namedview
     id="namedview13"
     pagecolor="#ffffff"
     bordercolor="#666666"
     borderopacity="1.0"
     inkscape:showpageshadow="2"
     inkscape:pageopacity="0.0"
     inkscape:pagecheckerboard="0"
     inkscape:deskcolor="#d1d1d1"
     showgrid="false"
     inkscape:zoom="1.4041667"
     inkscape:cx="136.02374"
     inkscape:cy="173.76855"
     inkscape:window-width="1401"
     inkscape:window-height="1263"
     inkscape:window-x="140"
     inkscape:window-y="541"
     inkscape:window-maximized="1"
     inkscape:current-layer="svg13" />
  <g
     id="g13"
     transform="matrix(0.26663889,0,0,0.26663889,-127.96,-15.971669)">
    <g
       fill="#3b3b3b"
       id="g8">
      <path
         d="m 566.6,822.1 c 0,2.1 -1.8,3.8 -3.9,3.8 h -74.9 c 1.9,18.5 15.8,35.4 35.4,35.4 13.4,0 23.3,-5.1 30.8,-15.8 1.1,-1.5 2.7,-2.4 4.8,-1.5 1.1,0.5 1.9,1.5 2.1,2.7 0.2,1.2 -0.1,1.9 -0.5,2.6 -7.5,13.1 -22.5,19.6 -37.3,19.6 -25.2,0 -43.2,-22.5 -43.2,-46.7 0,-24.1 18,-46.7 43.2,-46.7 25.3,0 43.5,22.5 43.5,46.6 z m -8,-3.7 C 557,799.9 542.8,783 523.2,783 c -19.6,0 -33.5,16.9 -35.4,35.4 z"
         id="path1" />
      <path
         d="m 657.5,777.4 c 2.1,0 3.8,1.9 3.8,3.8 0,2.1 -1.6,3.8 -3.8,3.8 h -20.1 v 78.8 c 0,1.9 -1.6,3.8 -3.8,3.8 -2.1,0 -3.8,-1.9 -3.8,-3.8 V 785 h -19.3 c -2.1,0 -3.8,-1.6 -3.8,-3.8 0,-1.9 1.6,-3.8 3.8,-3.8 h 19.3 v -28.9 c 0,-1.8 1.2,-3.5 3,-3.8 2.5,-0.4 4.5,1.3 4.5,3.7 v 29 z"
         id="path2" />
      <path
         d="m 780.1,815.5 v 47.7 c 0,2.1 -1.9,3.8 -3.8,3.8 -2.1,0 -3.8,-1.6 -3.8,-3.8 v -47.7 c 0,-16.1 -9.1,-32.2 -27.1,-32.2 -23.1,0 -33,20.1 -31.6,40.8 0,0.5 0.3,2.9 0.3,3.2 v 35.8 c 0,1.8 -1.2,3.5 -3,3.8 -2.5,0.4 -4.5,-1.3 -4.5,-3.7 V 706.3 c 0,-1.9 1.6,-3.8 3.8,-3.8 2.1,0 3.8,1.9 3.8,3.8 v 88.8 c 6.4,-11.5 18,-19.3 31.4,-19.3 21.9,0 34.5,19.3 34.5,39.7 z"
         id="path3" />
      <path
         d="m 914.4,822.1 c 0,2.1 -1.8,3.8 -3.9,3.8 h -74.9 c 1.9,18.5 15.8,35.4 35.4,35.4 13.4,0 23.3,-5.1 30.8,-15.8 1.1,-1.5 2.7,-2.4 4.8,-1.5 1.1,0.5 1.9,1.5 2.1,2.7 0.2,1.2 -0.1,1.9 -0.5,2.6 -7.5,13.1 -22.5,19.6 -37.3,19.6 -25.2,0 -43.2,-22.5 -43.2,-46.7 0,-24.1 18,-46.7 43.2,-46.7 25.3,0 43.5,22.5 43.5,46.6 z m -8,-3.7 C 904.8,799.9 890.6,783 871,783 c -19.6,0 -33.5,16.9 -35.4,35.4 z"
         id="path4" />
      <path
         d="m 1006.4,780.9 c 0,2.4 -1.3,3.8 -3.5,4 -22,3.2 -31.9,21.2 -31.9,42.1 v 35.8 c 0,1.8 -1.2,3.5 -3,3.8 -2.5,0.4 -4.5,-1.3 -4.5,-3.7 v -81.7 c 0,-1.8 1.2,-3.5 3,-3.8 2.5,-0.4 4.5,1.3 4.5,3.7 v 16.6 c 6.2,-10.5 18.5,-20.4 31.4,-20.4 1.8,0.1 4,1.4 4,3.6 z"
         id="path5" />
      <path
         d="m 1129.5,822.1 c 0,2.1 -1.8,3.8 -3.9,3.8 h -74.9 c 1.9,18.5 15.8,35.4 35.4,35.4 13.4,0 23.3,-5.1 30.8,-15.8 1.1,-1.5 2.7,-2.4 4.8,-1.5 1.1,0.5 1.9,1.5 2.1,2.7 0.2,1.2 -0.1,1.9 -0.5,2.6 -7.5,13.1 -22.5,19.6 -37.3,19.6 -25.2,0 -43.2,-22.5 -43.2,-46.7 0,-24.1 18,-46.7 43.2,-46.7 25.2,0 43.4,22.5 43.5,46.6 z m -8.1,-3.7 c -1.6,-18.5 -15.8,-35.4 -35.4,-35.4 -19.6,0 -33.5,16.9 -35.4,35.4 z"
         id="path6" />
      <path
         d="m 1250.4,781.8 v 25.9 56 c 0,2.1 -1.9,3.8 -3.8,3.8 -2.1,0 -3.8,-1.6 -3.8,-3.8 v -15.6 c -6.2,12.3 -17.2,21.2 -31.1,21.2 -22.3,0 -34.6,-19.3 -34.6,-39.7 v -48 c 0,-1.9 1.6,-3.8 3.8,-3.8 2.2,0 3.8,1.9 3.8,3.8 v 48 c 0,16.1 9.1,32.2 27.1,32.2 25.2,0 31.1,-23.6 31.1,-49.6 v -30.6 c 0,-2.2 2.2,-4.4 4.8,-3.6 1.7,0.5 2.7,2.1 2.7,3.8 z"
         id="path7" />
      <path
         d="m 1440,815.2 v 48 c 0,2.1 -1.9,3.8 -3.8,3.8 -2.1,0 -3.8,-1.6 -3.8,-3.8 v -48 c 0,-16.1 -9.1,-31.9 -27.1,-31.9 -22.5,0 -31.1,24.1 -31.1,42.9 v 37 c 0,2.1 -1.9,3.8 -3.8,3.8 -2.1,0 -3.8,-1.6 -3.8,-3.8 v -48 c 0,-16.1 -9.1,-31.9 -27.1,-31.9 -22.8,0 -32.2,18 -31.4,41.8 0,0.5 0.3,1.6 0,1.9 v 36.1 c 0,1.8 -1.2,3.5 -3,3.8 -2.5,0.4 -4.5,-1.3 -4.5,-3.7 v -82 c 0,-1.8 1.2,-3.5 3,-3.8 2.5,-0.4 4.5,1.3 4.5,3.7 v 13.7 c 6.4,-11.5 18,-19 31.4,-19 15.3,0 27.1,9.7 31.9,23.9 6.2,-13.9 18.2,-23.9 33.8,-23.9 22.2,0 34.8,19 34.8,39.4 z"
         id="path8" />
    </g>
    <path
       d="M 960,361.5 834.8,418.4 960,492.5 1085.2,418.4 Z"
       opacity="0.6"
       id="path9" />
    <path
       d="M 834.8,418.4 960,492.5 v -131 -150.9 z"
       opacity="0.45"
       id="path10" />
    <path
       d="m 960,210.6 v 150.9 131 l 125.2,-74.1 z"
       opacity="0.8"
       id="path11" />
    <path
       d="M 834.8,442.2 960,618.6 V 516.2 Z"
       opacity="0.45"
       id="path12" />
    <path
       d="M 960,516.2 V 618.6 L 1085.3,442.2 Z"
       opacity="0.8"
       id="path13" />
  </g>
</svg>
