<?xml version="1.0" encoding="UTF-8" standalone="no"?>
<svg
   version="1.1"
   id="Layer_1"
   x="0"
   y="0"
   viewBox="0 0 256 256"
   xml:space="preserve"
   enable-background="new 0 0 40 40"
   sodipodi:docname="filecoin-logo.svg"
   width="256"
   height="256"
   inkscape:version="1.4 (e7c3feb, 2024-10-09)"
   xmlns:inkscape="http://www.inkscape.org/namespaces/inkscape"
   xmlns:sodipodi="http://sodipodi.sourceforge.net/DTD/sodipodi-0.dtd"
   xmlns="http://www.w3.org/2000/svg"
   xmlns:svg="http://www.w3.org/2000/svg"><sodipodi:namedview
   id="namedview2"
   pagecolor="#ffffff"
   bordercolor="#666666"
   borderopacity="1.0"
   inkscape:showpageshadow="2"
   inkscape:pageopacity="0.0"
   inkscape:pagecheckerboard="0"
   inkscape:deskcolor="#d1d1d1"
   inkscape:zoom="1.767767"
   inkscape:cx="93.903781"
   inkscape:cy="-3.3941126"
   inkscape:window-width="1497"
   inkscape:window-height="1271"
   inkscape:window-x="618"
   inkscape:window-y="540"
   inkscape:window-maximized="1"
   inkscape:current-layer="Layer_1" />
    <style
   id="style1">
    .st1-logo {
        fill-rule: evenodd;
        clip-rule: evenodd;
        fill: #fff
    }
    </style>
    <defs
   id="defs1">
        <filter
   id="a-logo"
   filterUnits="userSpaceOnUse"
   x="0"
   y="0"
   width="40"
   height="40">
            <feColorMatrix
   values="1 0 0 0 0 0 1 0 0 0 0 0 1 0 0 0 0 0 1 0"
   id="feColorMatrix1" />
        </filter>
    </defs>
    <mask
   maskUnits="userSpaceOnUse"
   x="0"
   y="0"
   width="40"
   height="40"
   id="b-logo_1">
        <g
   filter="url(#a-logo)"
   id="g1">
            <path
   id="a-logo_1"
   class="st1-logo"
   d="M 0,0 H 40 V 40 H 0 Z" />
        </g>
    </mask>
    
    <g
   id="g2"
   transform="matrix(1.669825,0,0,1.669825,94.6035,40.182)"><path
     d="M 20,40 C 9,40 0,31 0,19.9 0.1,8.9 9,-0.1 20.1,0 31.1,0.1 40,9 40,20.2 39.9,31.1 31,40 20,40"
     mask="url(#b-logo_1)"
     fill-rule="evenodd"
     clip-rule="evenodd"
     fill="#0090ff"
     id="path1" /><path
     class="st1-logo"
     d="m 21.9,17.6 -0.6,3.2 5.7,0.8 -0.4,1.5 -5.6,-0.8 c -0.4,1.3 -0.6,2.7 -1.1,3.9 -0.5,1.4 -1,2.8 -1.6,4.1 -0.8,1.7 -2.2,2.9 -4.1,3.2 -1.1,0.2 -2.3,0.1 -3.2,-0.6 -0.3,-0.2 -0.6,-0.6 -0.6,-0.9 0,-0.4 0.2,-0.9 0.5,-1.1 0.2,-0.1 0.7,0 1,0.1 0.3,0.3 0.6,0.7 0.8,1.1 0.6,0.8 1.4,0.9 2.2,0.3 0.9,-0.8 1.4,-1.9 1.7,-3 0.6,-2.4 1.2,-4.7 1.7,-7.1 v -0.4 l -5.3,-0.8 0.2,-1.5 5.5,0.8 0.7,-3.1 -5.7,-0.9 0.2,-1.6 5.9,0.8 C 20,15 20.1,14.5 20.3,14 c 0.5,-1.8 1,-3.6 2.2,-5.2 1.2,-1.6 2.6,-2.6 4.7,-2.5 0.9,0 1.8,0.3 2.4,1 0.1,0.1 0.3,0.3 0.3,0.5 0,0.4 0,0.9 -0.3,1.2 C 29.2,9.3 28.7,9.2 28.3,8.8 28,8.5 27.8,8.2 27.5,7.9 26.9,7.1 26,7 25.3,7.7 c -0.5,0.5 -1,1.2 -1.3,1.9 -0.7,2.1 -1.2,4.3 -1.9,6.5 l 5.5,0.8 -0.4,1.5 -5.3,-0.8"
     id="path2" /></g>
<text
   xml:space="preserve"
   style="font-size:48px;line-height:13.5px;font-family:Nexa;-inkscape-font-specification:'Nexa, Normal';text-align:center;text-anchor:middle;stroke-width:0.91423"
   x="127.49599"
   y="177.01765"
   id="text2"><tspan
     sodipodi:role="line"
     id="tspan2"
     x="127.49599"
     y="177.01765"
     style="font-style:normal;font-variant:normal;font-weight:normal;font-stretch:normal;font-size:48px;line-height:13.5px;font-family:'Nimbus Sans';-inkscape-font-specification:'Nimbus Sans';stroke-width:0.91423">Filecoin</tspan></text></svg>
